<svg width="101" height="40" viewBox="0 0 101 40" fill="none" xmlns="http://www.w3.org/2000/svg">
<g clip-path="url(#clip0_329_101)">
<path d="M56.7325 20.8974H53.6995V13.5502C53.6995 13.1087 53.632 12.7219 53.4984 12.3883C53.3649 12.0548 53.1854 11.7787 52.9588 11.5573C52.7334 11.3372 52.4758 11.1745 52.187 11.0679C51.8983 10.9613 51.5988 10.908 51.2885 10.908C50.8216 10.908 50.3643 10.99 49.9123 11.1527C49.463 11.3153 49.0528 11.575 48.6872 11.9304V20.8974H45.6528V8.58695H48.6872L48.7074 9.50279C48.8896 9.31825 49.1135 9.14876 49.3807 8.99156C49.6465 8.83573 49.9244 8.70314 50.2118 8.59789C50.4992 8.49127 50.7946 8.41062 51.0969 8.35321C51.3991 8.29717 51.6892 8.26846 51.9698 8.26846C52.5877 8.26846 53.1814 8.36825 53.7494 8.56645C54.3174 8.76602 54.8234 9.07084 55.2646 9.48228C55.7084 9.89509 56.0619 10.4268 56.3291 11.0788C56.5949 11.7322 56.7284 12.5059 56.7284 13.4012V20.8974H56.7325Z" fill="white"/>
<path d="M68.4301 20.8974H65.3971V20.2358C64.8641 20.6062 64.2988 20.8605 63.7025 21.0026C63.1061 21.1448 62.4922 21.2159 61.8595 21.2159C61.2712 21.2159 60.7369 21.1256 60.2593 20.9493C59.783 20.773 59.3675 20.516 59.018 20.1825C58.6659 19.8476 58.396 19.4553 58.2072 19.0001C58.0183 18.5463 57.9238 18.0419 57.9238 17.4869C57.9238 16.7912 58.0736 16.1842 58.3772 15.6662C58.678 15.1468 59.0868 14.7148 59.6076 14.3676C60.1257 14.0204 60.7342 13.7607 61.4277 13.5898C62.1239 13.419 62.87 13.3342 63.6714 13.3342H65.42C65.42 12.6098 65.1893 12.0357 64.7252 11.6092C64.261 11.1827 63.5945 10.9708 62.7243 10.9708C62.302 10.9708 61.8675 11.0487 61.4183 11.2046C60.969 11.3618 60.5197 11.6461 60.0704 12.0562L58.2814 10.2245C58.9263 9.59982 59.6751 9.1173 60.5237 8.77557C61.3737 8.43521 62.2467 8.26434 63.1466 8.26434C63.9871 8.26434 64.7387 8.39967 65.3957 8.66895C66.0541 8.93823 66.5844 9.2868 66.9891 9.71191C67.5194 10.2518 67.8917 10.8546 68.1076 11.5217C68.3235 12.1888 68.4314 13.0403 68.4314 14.0765V20.8974H68.4301ZM65.3971 17.83V15.5527H64.0087C63.5878 15.5527 63.1911 15.5801 62.8187 15.6375C62.4464 15.6935 62.1239 15.7906 61.8487 15.9245C61.5748 16.0599 61.3575 16.2335 61.1956 16.4467C61.0351 16.6586 60.9528 16.9142 60.9528 17.2135C60.9528 17.6386 61.1187 17.9872 61.4493 18.2565C61.7785 18.5258 62.2049 18.6611 62.7229 18.6611C63.1722 18.6611 63.6175 18.59 64.0587 18.4479C64.5039 18.3057 64.9491 18.0993 65.3971 17.83Z" fill="white"/>
<path d="M80.7223 20.8974H77.6907V13.5502C77.6907 13.1087 77.6232 12.7219 77.4897 12.3883C77.3561 12.0548 77.1753 11.7787 76.95 11.5573C76.7247 11.3372 76.4656 11.1745 76.1782 11.0679C75.8882 10.9613 75.59 10.908 75.2783 10.908C74.8142 10.908 74.3555 10.99 73.9035 11.1527C73.4528 11.3153 73.0427 11.575 72.677 11.9304V20.8974H69.644V8.58695H72.677L72.6986 9.50279C72.8794 9.31825 73.1061 9.14876 73.3719 8.99156C73.639 8.83573 73.9156 8.70314 74.203 8.59789C74.4904 8.49127 74.7859 8.41062 75.0881 8.35321C75.3889 8.29717 75.6804 8.26846 75.961 8.26846C76.5789 8.26846 77.1726 8.36825 77.7406 8.56645C78.3086 8.76602 78.8146 9.07084 79.2558 9.48228C79.6997 9.89509 80.0545 10.4268 80.3189 11.0788C80.5847 11.7322 80.7183 12.5059 80.7183 13.4012V20.8974H80.7223Z" fill="white"/>
<path d="M94.6681 14.6738C94.6681 15.5978 94.5008 16.4535 94.1649 17.2409C93.8276 18.0296 93.3634 18.7103 92.7738 19.2871C92.1856 19.8613 91.4934 20.3164 90.7001 20.65C89.9068 20.9835 89.0608 21.1503 88.1636 21.1503C87.2637 21.1503 86.4218 20.9821 85.6352 20.65C84.8486 20.3164 84.1619 19.8585 83.5723 19.2748C82.9813 18.6939 82.5185 18.0077 82.1812 17.2204C81.8453 16.4317 81.6753 15.5842 81.6753 14.6752C81.6753 13.7812 81.8493 12.9406 82.1907 12.1519C82.5361 11.3631 83.0029 10.6756 83.5925 10.0851C84.1808 9.49731 84.8689 9.03529 85.6554 8.70177C86.4393 8.36824 87.2772 8.20148 88.1623 8.20148C89.0595 8.20148 89.9054 8.36824 90.6988 8.70177C91.4921 9.03529 92.1842 9.48911 92.7725 10.0646C93.3621 10.6401 93.8262 11.3249 94.1635 12.1204C94.5008 12.9146 94.6681 13.7662 94.6681 14.6738ZM91.6378 14.6738C91.6378 14.1503 91.5461 13.6596 91.3639 13.2057C91.1804 12.7506 90.9322 12.3528 90.6192 12.0124C90.3035 11.6721 89.9365 11.4055 89.5169 11.2142C89.0973 11.0228 88.6493 10.9257 88.1731 10.9257C87.6995 10.9257 87.2489 11.0214 86.8306 11.2142C86.411 11.4055 86.0427 11.6721 85.7283 12.0124C85.4139 12.3528 85.1657 12.7506 84.9835 13.2057C84.8001 13.6596 84.7096 14.1503 84.7096 14.6738C84.7096 15.1987 84.8001 15.6908 84.9835 16.1432C85.1643 16.5971 85.4139 16.9962 85.7283 17.3352C86.044 17.6769 86.411 17.9435 86.8306 18.1348C87.2489 18.3262 87.6995 18.4219 88.1731 18.4219C88.6493 18.4219 89.0973 18.3262 89.5169 18.1348C89.9365 17.9435 90.3048 17.6769 90.6192 17.3352C90.9322 16.9948 91.1818 16.5971 91.3639 16.1432C91.5461 15.6894 91.6378 15.1987 91.6378 14.6738Z" fill="white"/>
<path d="M56.6325 32.7991C56.0146 33.5085 55.2712 34.0485 54.4009 34.4175C53.5307 34.7866 52.6187 34.9711 51.6634 34.9711C50.7783 34.9711 49.9445 34.8071 49.1579 34.4804C48.3727 34.1551 47.6914 33.7026 47.1126 33.1285C46.5324 32.553 46.0764 31.8696 45.7431 31.074C45.4085 30.2785 45.2412 29.4201 45.2412 28.4974C45.2412 27.5884 45.4085 26.7409 45.7431 25.9522C46.0764 25.1649 46.5297 24.4787 47.1031 23.8978C47.6738 23.3168 48.3525 22.8589 49.1377 22.524C49.9243 22.1891 50.7662 22.0237 51.6648 22.0237C52.5917 22.0237 53.4727 22.1946 54.3079 22.5349C55.143 22.8767 55.8675 23.3947 56.4868 24.0891L54.4441 26.1969C54.1365 25.7868 53.7601 25.4465 53.3175 25.1744C52.8737 24.9052 52.338 24.7698 51.7066 24.7698C51.2425 24.7698 50.804 24.8696 50.3898 25.0692C49.9756 25.2674 49.6113 25.5339 49.2956 25.8688C48.9785 26.201 48.7303 26.596 48.5468 27.0499C48.3633 27.505 48.2715 27.9876 48.2715 28.4988C48.2715 29.0086 48.3633 29.4925 48.5468 29.9463C48.7303 30.4015 48.9745 30.7938 49.2834 31.1287C49.591 31.4623 49.9567 31.7274 50.379 31.927C50.7999 32.1252 51.2411 32.225 51.7066 32.225C52.311 32.225 52.8575 32.0787 53.3486 31.7876C53.8397 31.4978 54.2336 31.1246 54.5278 30.6708L56.6325 32.7991Z" fill="white"/>
<path d="M68.3329 34.6513H65.3012V33.9924C64.767 34.3615 64.2016 34.6171 63.6053 34.7579C63.0103 34.9 62.3951 34.9725 61.7636 34.9725C61.174 34.9725 60.6397 34.8836 60.1648 34.7059C59.6859 34.5296 59.273 34.274 58.9222 33.9391C58.5701 33.6069 58.3002 33.2119 58.11 32.7595C57.9211 32.3056 57.8267 31.8013 57.8267 31.2463C57.8267 30.5519 57.9764 29.9436 58.2786 29.4256C58.5809 28.9089 58.991 28.4742 59.5118 28.127C60.0313 27.7784 60.6384 27.5201 61.3319 27.3492C62.0281 27.1783 62.7742 27.0936 63.5743 27.0936H65.3228C65.3228 26.3705 65.0908 25.795 64.6266 25.3686C64.1639 24.9434 63.4974 24.7316 62.6271 24.7316C62.2062 24.7316 61.7704 24.8095 61.3211 24.9653C60.8718 25.1211 60.4212 25.4055 59.9732 25.8169L58.1828 23.9852C58.8291 23.3606 59.5766 22.878 60.4266 22.5363C61.2752 22.1959 62.1495 22.0251 63.0481 22.0251C63.89 22.0251 64.6415 22.1604 65.2985 22.4297C65.957 22.699 66.4872 23.0475 66.892 23.4726C67.4208 24.0112 67.7946 24.6168 68.0104 25.2824C68.225 25.9509 68.3343 26.8024 68.3343 27.8399V34.6513H68.3329ZM65.3012 31.5866V29.308H63.9102C63.4893 29.308 63.0926 29.3353 62.7216 29.3927C62.3478 29.4502 62.0267 29.5458 61.7528 29.6798C61.4776 29.8138 61.2604 29.9887 61.0998 30.2006C60.9393 30.4152 60.8583 30.6708 60.8583 30.9688C60.8583 31.3953 61.0229 31.7425 61.3521 32.0118C61.6827 32.2824 62.1077 32.4164 62.6285 32.4164C63.0778 32.4164 63.5216 32.3453 63.9642 32.2031C64.4054 32.061 64.8506 31.8559 65.3012 31.5866Z" fill="white"/>
<path d="M78.3548 23.6203L76.7317 26.2188C76.4389 25.8921 76.111 25.605 75.7535 25.3562C75.3946 25.1075 75.033 24.9831 74.6687 24.9831C74.4704 24.9831 74.2586 25.0282 74.0252 25.1211C73.7945 25.2141 73.5772 25.3658 73.3735 25.5791C73.1698 25.7923 72.9971 26.0739 72.8581 26.4211C72.7178 26.7683 72.6463 27.1975 72.6463 27.7087V34.6499H69.6133V22.3422H72.6463V23.6626C73.0119 23.1391 73.4153 22.7331 73.8579 22.4502C74.3004 22.1659 74.7956 22.0237 75.3433 22.0237C75.8763 22.0237 76.3998 22.17 76.9125 22.4611C77.4238 22.7509 77.9041 23.1391 78.3548 23.6203Z" fill="white"/>
<path d="M91.0911 28.4769C91.0911 28.6765 91.0803 28.8815 91.0587 29.0934C91.0371 29.308 91.0142 29.5267 90.9845 29.755H81.2567C81.3687 30.109 81.5252 30.4466 81.7303 30.7651C81.934 31.085 82.1836 31.3625 82.4764 31.5962C82.7719 31.8299 83.1065 32.0145 83.4789 32.1484C83.8486 32.2838 84.2601 32.3507 84.7094 32.3507C85.2571 32.3507 85.8049 32.2564 86.3527 32.0637C86.8991 31.8723 87.3565 31.614 87.7221 31.2873L89.638 33.2256C88.7961 33.8639 87.9704 34.315 87.1636 34.5761C86.3554 34.8399 85.5027 34.9711 84.6055 34.9711C83.6921 34.9711 82.8394 34.8003 82.046 34.4599C81.2527 34.1182 80.5646 33.6575 79.9817 33.0766C79.4016 32.4943 78.9402 31.8094 78.6042 31.0221C78.2683 30.2334 78.0996 29.3927 78.0996 28.4974C78.0996 27.6021 78.2683 26.7614 78.6042 25.9741C78.9402 25.1867 79.4043 24.5006 79.9939 23.9182C80.5821 23.3359 81.2702 22.8753 82.0568 22.5336C82.8421 22.1932 83.6853 22.0223 84.5839 22.0223C85.4406 22.0223 86.2623 22.1823 87.0475 22.5021C87.8341 22.8206 88.5276 23.2649 89.1334 23.8335C89.7365 24.3994 90.2141 25.0788 90.5649 25.8675C90.9157 26.6548 91.0911 27.5255 91.0911 28.4769ZM87.9097 27.2836C87.6709 26.5031 87.2472 25.8743 86.6374 25.3986C86.0248 24.9229 85.3327 24.6851 84.5623 24.6851C83.8054 24.6851 83.124 24.9229 82.5196 25.3986C81.9165 25.8743 81.4956 26.5031 81.2567 27.2836H87.9097Z" fill="white"/>
<path fill-rule="evenodd" clip-rule="evenodd" d="M14.4722 15.1495C14.6779 14.9827 14.8631 14.7968 15.0715 14.6314C17.838 12.0999 22.0115 12.0124 24.6323 14.436C25.1267 14.8898 25.3746 15.2629 25.993 15.5937C27.4995 16.4016 29.4201 16.1309 30.6815 14.8652C32.1485 13.3916 32.2547 10.718 30.6869 9.14464C29.2853 7.73535 27.0936 7.57269 25.5054 8.71406C25.3201 8.85896 25.1744 8.96284 25.0082 9.12961C22.2799 11.8675 18.0273 12.0794 15.3017 9.71738C14.7228 9.22119 14.5185 8.80838 13.817 8.43521C12.3119 7.62873 10.3667 7.87751 9.08634 9.16515C7.51581 10.7412 7.51309 13.311 9.08089 14.8843C10.5452 16.3537 12.8989 16.4344 14.4722 15.1495Z" fill="white"/>
<path fill-rule="evenodd" clip-rule="evenodd" d="M14.5664 31.1342C14.7721 30.9688 14.9574 30.7815 15.1658 30.6161C17.9322 28.0846 22.1058 27.9971 24.7252 30.422C25.221 30.8745 25.4689 31.2476 26.0859 31.5784C27.5951 32.3876 29.5144 32.1156 30.7743 30.8499C32.2427 29.3763 32.3476 26.7026 30.7812 25.1307C29.3795 23.7214 27.1892 23.5587 25.5996 24.6987C25.413 24.8423 25.2686 24.9475 25.1038 25.1143C22.3741 27.8522 18.1216 28.0641 15.396 25.7021C14.8184 25.2059 14.6127 24.7931 13.9112 24.4199C12.4034 23.612 10.461 23.8622 9.18058 25.1485C7.61005 26.7245 7.60732 29.2943 9.17513 30.869C10.6394 32.3398 12.9918 32.4191 14.5664 31.1342Z" fill="white"/>
<path fill-rule="evenodd" clip-rule="evenodd" d="M6.56252 23.1213C6.76956 22.9546 6.95481 22.7673 7.16321 22.6033C9.93105 20.0717 14.0814 20.0048 16.724 22.4051C17.2171 22.8616 17.4445 23.2539 18.0629 23.5874C18.3667 23.7419 18.6841 23.8458 19.0096 23.921C19.0723 23.9387 19.1377 23.9565 19.2044 23.9688C19.2344 23.9729 19.2643 23.9811 19.2943 23.9852C20.4317 24.2012 21.6385 23.9251 22.5852 23.1473C22.7909 22.9819 22.9775 22.7946 23.1641 22.6074C25.9551 20.0991 30.1273 20.0143 32.7466 22.4338C33.222 22.8698 33.4481 23.2635 34.087 23.6148C35.1181 24.1465 36.3154 24.1916 37.3738 23.772C37.4623 23.7392 37.5427 23.705 37.6299 23.6654C37.6721 23.6449 37.717 23.6285 37.7593 23.6052C38.1393 23.4152 38.4989 23.1637 38.8176 22.8438C40.3882 21.2692 40.3909 18.739 38.8217 17.1643C38.819 17.1602 38.8149 17.1561 38.8122 17.1534C38.8081 17.152 38.8054 17.1466 38.8027 17.1438C37.3792 15.714 35.1699 15.5719 33.6184 16.7119C33.4127 16.8376 33.2888 16.9607 33.1022 17.1479C30.3738 19.8858 26.1199 20.0964 23.3943 17.6961C22.8372 17.219 22.6097 16.7843 21.93 16.4344C21.6998 16.3141 21.4587 16.2239 21.2149 16.1501C20.0135 15.7496 18.6568 15.9259 17.593 16.6845C17.3873 16.8527 17.2416 16.9566 17.0768 17.1219C14.3471 19.8599 10.0945 20.0704 7.37162 17.7097C6.81178 17.193 6.5884 16.798 5.90461 16.4071C4.37903 15.6183 2.45843 15.8507 1.17667 17.137C-0.393858 18.713 -0.396582 21.2828 1.17122 22.8575C2.63959 24.327 4.97155 24.4295 6.56252 23.1213Z" fill="white"/>
<path fill-rule="evenodd" clip-rule="evenodd" d="M17.0701 1.18374C15.52 2.73792 15.4968 5.28721 17.0633 6.86053C18.6311 8.43385 21.1728 8.41198 22.7229 6.8578C24.2948 5.28175 24.2962 2.75159 22.7284 1.1769C21.1592 -0.395048 18.6393 -0.392314 17.0701 1.18374Z" fill="white"/>
<path fill-rule="evenodd" clip-rule="evenodd" d="M17.1365 33.1517C15.5851 34.7087 15.5633 37.2566 17.1297 38.8299C18.6989 40.4019 21.2406 40.38 22.7893 38.8244C24.3599 37.2484 24.3626 34.7182 22.7948 33.1435C21.2283 31.573 18.7057 31.5757 17.1365 33.1517Z" fill="white"/>
<path d="M98.84 6.60901C98.755 6.51606 98.647 6.42995 98.5135 6.3534C98.7779 6.31513 98.9776 6.22081 99.1098 6.07182C99.2434 5.92282 99.3095 5.73419 99.3095 5.50455C99.3095 5.32411 99.2663 5.16418 99.1773 5.02339C99.0896 4.88397 98.9735 4.78555 98.8265 4.73087C98.6794 4.67483 98.446 4.64749 98.1235 4.64749H96.8418V7.69844H97.4503V6.42448H97.5744C97.7147 6.42448 97.8173 6.43541 97.8807 6.45865C97.9468 6.48189 98.0062 6.52426 98.0642 6.58578C98.1208 6.64729 98.2288 6.79765 98.3853 7.03412L98.8251 7.69844H99.5523L99.1854 7.10384C99.041 6.86599 98.9263 6.70196 98.84 6.60901ZM97.9023 5.93786H97.4516V5.16418H97.9266C98.1748 5.16418 98.3219 5.16692 98.3718 5.17512C98.4703 5.19152 98.5472 5.23116 98.6012 5.29541C98.6565 5.35829 98.6835 5.44167 98.6835 5.54419C98.6835 5.63577 98.6632 5.71232 98.6214 5.77246C98.5809 5.83397 98.5243 5.87635 98.45 5.90232C98.3772 5.92556 98.1937 5.93786 97.9023 5.93786Z" fill="white"/>
<path d="M98.0356 3.17123C96.4017 3.17123 95.0728 4.51764 95.0728 6.17298C95.0728 7.82831 96.4017 9.17472 98.0356 9.17472C99.6695 9.17472 100.998 7.82831 100.998 6.17298C100.998 4.51764 99.6695 3.17123 98.0356 3.17123ZM98.0356 8.74414C96.6365 8.74414 95.4964 7.59047 95.4964 6.17298C95.4964 4.75549 96.6351 3.60181 98.0356 3.60181C99.4347 3.60181 100.573 4.75549 100.573 6.17298C100.573 7.59047 99.4361 8.74414 98.0356 8.74414Z" fill="white"/>
</g>
<defs>
<clipPath id="clip0_329_101">
<rect width="101" height="40" fill="white"/>
</clipPath>
</defs>
</svg>
